<svg viewBox="0, 0, 540, 540" width="540" height="540"><line stroke-width="0.4" stroke="#FFFFFF" x1="540" y1="269.99999999999994" x2="540" y2="269.99999999999994"></line><line stroke-width="0.4" stroke="#FFFFFF" x1="531.5174535047304" y1="337.1462695345108" x2="51.56541151876414" y2="111.29798188103234"></line><line stroke-width="0.4" stroke="#FFFFFF" x1="506.6028036118432" y1="400.073492007463" x2="353.4345884812359" y2="526.7852593996914"></line><line stroke-width="0.4" stroke="#FFFFFF" x1="466.82152940378114" y1="454.8277186007459" x2="353.43458848123566" y2="13.21474060030846"></line><line stroke-width="0.4" stroke="#FFFFFF" x1="414.6732346443292" y1="497.968539885544" x2="51.56541151876425" y2="428.70201811896777"></line><line stroke-width="0.4" stroke="#FFFFFF" x1="353.4345884812359" y1="526.7852593996914" x2="540" y2="269.99999999999994"></line><line stroke-width="0.4" stroke="#FFFFFF" x1="286.9534402729146" y1="539.4672166756334" x2="51.56541151876414" y2="111.29798188103234"></line><line stroke-width="0.4" stroke="#FFFFFF" x1="219.40704506185426" y1="535.2175576967459" x2="353.4345884812359" y2="526.7852593996914"></line><line stroke-width="0.4" stroke="#FFFFFF" x1="155.03959127743065" y1="514.3033041658255" x2="353.43458848123566" y2="13.21474060030846"></line><line stroke-width="0.4" stroke="#FFFFFF" x1="97.89552276785392" y1="478.0385755494632" x2="51.56541151876425" y2="428.70201811896777"></line><line stroke-width="0.4" stroke="#FFFFFF" x1="51.56541151876425" y1="428.70201811896777" x2="540" y2="269.99999999999994"></line><line stroke-width="0.4" stroke="#FFFFFF" x1="18.960348810172093" y1="369.39362922486305" x2="51.56541151876414" y2="111.29798188103234"></line><line stroke-width="0.4" stroke="#FFFFFF" x1="2.1290306450909497" y1="303.83997306236205" x2="353.4345884812359" y2="526.7852593996914"></line><line stroke-width="0.4" stroke="#FFFFFF" x1="2.1290306450909497" y1="236.16002693763815" x2="353.43458848123566" y2="13.21474060030846"></line><line stroke-width="0.4" stroke="#FFFFFF" x1="18.960348810172036" y1="170.60637077513712" x2="51.56541151876425" y2="428.70201811896777"></line><line stroke-width="0.4" stroke="#FFFFFF" x1="51.56541151876414" y1="111.29798188103234" x2="540" y2="269.99999999999994"></line><line stroke-width="0.4" stroke="#FFFFFF" x1="97.89552276785378" y1="61.961424450536896" x2="51.56541151876414" y2="111.29798188103234"></line><line stroke-width="0.4" stroke="#FFFFFF" x1="155.03959127743047" y1="25.696695834174676" x2="353.4345884812359" y2="526.7852593996914"></line><line stroke-width="0.4" stroke="#FFFFFF" x1="219.40704506185403" y1="4.782442303254129" x2="353.43458848123566" y2="13.21474060030846"></line><line stroke-width="0.4" stroke="#FFFFFF" x1="286.9534402729144" y1="0.532783324366676" x2="51.56541151876425" y2="428.70201811896777"></line><line stroke-width="0.4" stroke="#FFFFFF" x1="353.43458848123566" y1="13.21474060030846" x2="540" y2="269.99999999999994"></line><line stroke-width="0.4" stroke="#FFFFFF" x1="414.67323464432906" y1="42.03146011445594" x2="51.56541151876414" y2="111.29798188103234"></line><line stroke-width="0.4" stroke="#FFFFFF" x1="466.82152940378114" y1="85.1722813992541" x2="353.4345884812359" y2="526.7852593996914"></line><line stroke-width="0.4" stroke="#FFFFFF" x1="506.602803611843" y1="139.92650799253659" x2="353.43458848123566" y2="13.21474060030846"></line><line stroke-width="0.4" stroke="#FFFFFF" x1="531.5174535047304" y1="202.85373046548898" x2="51.56541151876425" y2="428.70201811896777"></line></svg>