<?xml version="1.0" standalone="no"?>
<svg width="4000" height="1866" title="polygons" version="1.1" viewBox="0 0 8000 3666" xmlns="http://www.w3.org/2000/svg" class="svg-paper"><!----> <g><desc>pwidth:8000;pheight:3666;pcolor:;seed:1};sf:i+i*7;rf:10*sin(i/2);xf:400;yf:400;qt:9;sd:10;rn:0.8;minrd:20;maxrd:50;mina:360;maxa:360;cv:curveCardinalClosed;rd:false</desc> <path stroke="#FFCC33" stroke-width="0.4mm" fill="none" d="M411.76,416.18C412.39,415.72,418.78,406.93,419.02,406.18C419.26,405.43,419.26,394.57,419.02,393.82C418.78,393.07,412.39,384.28,411.76,383.82C411.12,383.36,400.78,380,400,380C399.22,380,388.88,383.36,388.24,383.82C387.61,384.28,381.22,393.07,380.98,393.82C380.74,394.57,380.74,405.43,380.98,406.18C381.22,406.93,387.61,415.72,388.24,416.18C388.88,416.64,399.22,420,400,420C400.78,420,411.12,416.64,411.76,416.18"/><path stroke="#FFCC33" stroke-width="0.4mm" fill="none" d="M418.29,421.20C419.12,420.48,427.01,407.46,427.26,406.40C427.51,405.33,426.24,390.16,425.81,389.15C425.39,388.14,415.45,376.62,414.51,376.05C413.57,375.48,398.75,372.01,397.66,372.10C396.57,372.19,382.54,378.09,381.71,378.80C380.88,379.52,372.99,392.54,372.74,393.60C372.49,394.67,373.76,409.84,374.19,410.85C374.61,411.86,384.55,423.38,385.49,423.95C386.43,424.52,401.25,427.99,402.34,427.90C403.43,427.81,417.46,421.91,418.29,421.20"/><path stroke="#FFCC33" stroke-width="0.4mm" fill="none" d="M425.19,425.71C426.20,424.73,435.26,407.39,435.50,405.99C435.73,404.60,432.87,385.25,432.24,383.98C431.61,382.72,417.92,368.75,416.67,368.09C415.42,367.44,396.13,364.18,394.73,364.39C393.34,364.59,375.81,373.30,374.81,374.29C373.80,375.27,364.74,392.61,364.50,394.01C364.27,395.40,367.13,414.75,367.76,416.02C368.39,417.28,382.08,431.25,383.33,431.91C384.58,432.56,403.87,435.82,405.27,435.61C406.66,435.41,424.19,426.70,425.19,425.71"/><path stroke="#FFCC33" stroke-width="0.4mm" fill="none" d="M431.64,430.58C432.84,429.34,443.33,407.85,443.57,406.14C443.81,404.44,439.67,380.88,438.86,379.36C438.05,377.84,420.85,361.22,419.31,360.46C417.76,359.70,394.08,356.37,392.38,356.67C390.68,356.96,369.56,368.18,368.36,369.42C367.16,370.66,356.67,392.15,356.43,393.86C356.19,395.56,360.33,419.12,361.14,420.64C361.95,422.16,379.15,438.78,380.69,439.54C382.24,440.30,405.92,443.63,407.62,443.33C409.32,443.04,430.44,431.82,431.64,430.58"/><path stroke="#FFCC33" stroke-width="0.4mm" fill="none" d="M436.83,436.71C438.27,435.27,451.06,410.06,451.37,408.05C451.69,406.04,447.22,378.13,446.29,376.32C445.37,374.50,425.35,354.55,423.53,353.63C421.72,352.71,393.79,348.33,391.78,348.65C389.77,348.98,364.61,361.85,363.17,363.29C361.73,364.73,348.94,389.94,348.63,391.95C348.31,393.96,352.78,421.87,353.71,423.68C354.63,425.50,374.65,445.45,376.47,446.37C378.28,447.29,406.21,451.67,408.22,451.35C410.23,451.02,435.39,438.15,436.83,436.71"/><path stroke="#FFCC33" stroke-width="0.4mm" fill="none" d="M440.14,444.60C441.88,443.03,458.20,414.79,458.69,412.49C459.17,410.19,455.77,377.76,454.82,375.61C453.86,373.46,432.05,349.22,430.01,348.05C427.98,346.87,396.08,340.08,393.74,340.33C391.41,340.57,361.61,353.83,359.86,355.40C358.12,356.97,341.80,385.21,341.31,387.51C340.83,389.81,344.23,422.24,345.18,424.39C346.14,426.54,367.95,450.78,369.99,451.95C372.02,453.13,403.92,459.92,406.26,459.67C408.59,459.43,438.39,446.17,440.14,444.60"/><path stroke="#FFCC33" stroke-width="0.4mm" fill="none" d="M441.31,454.01C443.43,452.39,464.41,421.97,465.17,419.41C465.93,416.86,465.02,379.91,464.13,377.40C463.25,374.89,440.80,345.53,438.60,344.02C436.41,342.51,400.99,331.96,398.33,332.02C395.66,332.09,360.80,344.37,358.69,345.99C356.57,347.61,335.59,378.03,334.83,380.59C334.07,383.14,334.98,420.09,335.87,422.60C336.75,425.11,359.20,454.47,361.40,455.98C363.59,457.49,399.01,468.04,401.67,467.98C404.34,467.91,439.20,455.63,441.31,454.01"/><path stroke="#FFCC33" stroke-width="0.4mm" fill="none" d="M440.83,464.10C443.34,462.50,469.62,430.63,470.71,427.86C471.80,425.09,474.33,383.86,473.58,380.98C472.84,378.10,450.65,343.26,448.35,341.36C446.05,339.47,407.62,324.32,404.65,324.14C401.68,323.96,361.69,334.30,359.17,335.90C356.66,337.50,330.38,369.37,329.29,372.14C328.20,374.91,325.67,416.14,326.42,419.02C327.16,421.90,349.35,456.74,351.65,458.64C353.95,460.53,392.38,475.68,395.35,475.86C398.32,476.04,438.31,465.70,440.83,464.10"/><path stroke="#FFCC33" stroke-width="0.4mm" fill="none" d="M439.99,473.87C442.89,472.30,474.35,439.22,475.77,436.25C477.19,433.28,483.21,388.03,482.61,384.79C482.02,381.55,460.28,341.41,457.89,339.14C455.51,336.87,414.33,317.17,411.06,316.73C407.80,316.30,362.90,324.56,360.01,326.13C357.11,327.70,325.65,360.78,324.23,363.75C322.81,366.72,316.79,411.97,317.39,415.21C317.98,418.45,339.72,458.59,342.11,460.86C344.49,463.13,385.67,482.83,388.94,483.27C392.20,483.70,437.10,475.44,439.99,473.87"/></g></svg>