<svg xmlns="http://www.w3.org/2000/svg" viewBox="0 0 48 48"><defs><style>.cls-1{fill:#E3C74B}</style></defs><g id="Layer_2" data-name="Layer 2"><g id="layer_1-2" data-name="layer 1"><path class="cls-1" d="M17.26 47A24 24 0 0 1 24 0v2a22 22 0 0 0-6.18 43.12zM24 48v-2a22 22 0 0 0 6.18-43.12L30.74 1A24 24 0 0 1 24 48z"/><path class="cls-1" d="M18 48h-7v-2h5.38l-2.27-4.55 1.78-.9 3 6A1 1 0 0 1 18 48zM32.11 7.45l-3-6A1 1 0 0 1 30 0h7v2h-5.38l2.27 4.55zM24 39a15 15 0 1 1 15-15 15 15 0 0 1-15 15zm0-28a13 13 0 1 0 13 13 13 13 0 0 0-13-13z"/><path class="cls-1" d="M18 29c-2.21 0-4-2.24-4-5a3.71 3.71 0 0 1 4-4 3.71 3.71 0 0 1 4 4c0 2.76-1.79 5-4 5zm0-7c-1.79 0-2 1.14-2 2 0 1.6.93 3 2 3s2-1.4 2-3c0-.86-.21-2-2-2z"/><path class="cls-1" d="M25 38h-2v-7.31a1 1 0 0 0-.84-1L18 29l-4.17.7a1 1 0 0 0-.83 1v.3h-2v-.31a3 3 0 0 1 2.51-3l4.33-.69a1.71 1.71 0 0 1 .32 0l4.33.73a3 3 0 0 1 2.51 3zM30 26c-2.21 0-4-2.24-4-5a3.71 3.71 0 0 1 4-4 3.71 3.71 0 0 1 4 4c0 2.76-1.79 5-4 5zm0-7c-1.79 0-2 1.14-2 2 0 1.6.93 3 2 3s2-1.4 2-3c0-.86-.21-2-2-2z"/><path class="cls-1" d="M37 31h-2v-3.31a1 1 0 0 0-.84-1L30 26l-4.17.7a1 1 0 0 0-.83 1h-2a3 3 0 0 1 2.51-3l4.33-.7a1.71 1.71 0 0 1 .32 0l4.33.73a3 3 0 0 1 2.51 3z"/><path class="cls-1" d="M29 28h2v2h-2zM29 32h2v2h-2z"/></g></g></svg>