<svg xmlns="http://www.w3.org/2000/svg" version="1.1" xmlns:xlink="http://www.w3.org/1999/xlink" xmlns:svgjs="http://svgjs.dev/svgjs" viewBox="0 0 1422 800"><g stroke-width="3.5" stroke="hsl(40, 75%, 50%)" fill="none" stroke-linecap="round"><path d="M 0 750 Q 355.5 130 711 400 Q 1066.5 670 1422 750" opacity="1.00"></path><path d="M 0 735 Q 355.5 130 711 400 Q 1066.5 670 1422 735" opacity="0.98"></path><path d="M 0 720 Q 355.5 130 711 400 Q 1066.5 670 1422 720" opacity="0.96"></path><path d="M 0 705 Q 355.5 130 711 400 Q 1066.5 670 1422 705" opacity="0.94"></path><path d="M 0 690 Q 355.5 130 711 400 Q 1066.5 670 1422 690" opacity="0.92"></path><path d="M 0 675 Q 355.5 130 711 400 Q 1066.5 670 1422 675" opacity="0.90"></path><path d="M 0 660 Q 355.5 130 711 400 Q 1066.5 670 1422 660" opacity="0.88"></path><path d="M 0 645 Q 355.5 130 711 400 Q 1066.5 670 1422 645" opacity="0.86"></path><path d="M 0 630 Q 355.5 130 711 400 Q 1066.5 670 1422 630" opacity="0.84"></path><path d="M 0 615 Q 355.5 130 711 400 Q 1066.5 670 1422 615" opacity="0.83"></path><path d="M 0 600 Q 355.5 130 711 400 Q 1066.5 670 1422 600" opacity="0.81"></path><path d="M 0 585 Q 355.5 130 711 400 Q 1066.5 670 1422 585" opacity="0.79"></path><path d="M 0 570 Q 355.5 130 711 400 Q 1066.5 670 1422 570" opacity="0.77"></path><path d="M 0 555 Q 355.5 130 711 400 Q 1066.5 670 1422 555" opacity="0.75"></path><path d="M 0 540 Q 355.5 130 711 400 Q 1066.5 670 1422 540" opacity="0.73"></path><path d="M 0 525 Q 355.5 130 711 400 Q 1066.5 670 1422 525" opacity="0.71"></path><path d="M 0 510 Q 355.5 130 711 400 Q 1066.5 670 1422 510" opacity="0.69"></path><path d="M 0 495 Q 355.5 130 711 400 Q 1066.5 670 1422 495" opacity="0.67"></path><path d="M 0 480 Q 355.5 130 711 400 Q 1066.5 670 1422 480" opacity="0.65"></path><path d="M 0 465 Q 355.5 130 711 400 Q 1066.5 670 1422 465" opacity="0.63"></path><path d="M 0 450 Q 355.5 130 711 400 Q 1066.5 670 1422 450" opacity="0.61"></path><path d="M 0 435 Q 355.5 130 711 400 Q 1066.5 670 1422 435" opacity="0.59"></path><path d="M 0 420 Q 355.5 130 711 400 Q 1066.5 670 1422 420" opacity="0.57"></path><path d="M 0 405 Q 355.5 130 711 400 Q 1066.5 670 1422 405" opacity="0.55"></path><path d="M 0 390 Q 355.5 130 711 400 Q 1066.5 670 1422 390" opacity="0.53"></path><path d="M 0 375 Q 355.5 130 711 400 Q 1066.5 670 1422 375" opacity="0.52"></path><path d="M 0 360 Q 355.5 130 711 400 Q 1066.5 670 1422 360" opacity="0.50"></path><path d="M 0 345 Q 355.5 130 711 400 Q 1066.5 670 1422 345" opacity="0.48"></path><path d="M 0 330 Q 355.5 130 711 400 Q 1066.5 670 1422 330" opacity="0.46"></path><path d="M 0 315 Q 355.5 130 711 400 Q 1066.5 670 1422 315" opacity="0.44"></path><path d="M 0 300 Q 355.5 130 711 400 Q 1066.5 670 1422 300" opacity="0.42"></path><path d="M 0 285 Q 355.5 130 711 400 Q 1066.5 670 1422 285" opacity="0.40"></path><path d="M 0 270 Q 355.5 130 711 400 Q 1066.5 670 1422 270" opacity="0.38"></path><path d="M 0 255 Q 355.5 130 711 400 Q 1066.5 670 1422 255" opacity="0.36"></path><path d="M 0 240 Q 355.5 130 711 400 Q 1066.5 670 1422 240" opacity="0.34"></path><path d="M 0 225 Q 355.5 130 711 400 Q 1066.5 670 1422 225" opacity="0.32"></path><path d="M 0 210 Q 355.5 130 711 400 Q 1066.5 670 1422 210" opacity="0.30"></path><path d="M 0 195 Q 355.5 130 711 400 Q 1066.5 670 1422 195" opacity="0.28"></path><path d="M 0 180 Q 355.5 130 711 400 Q 1066.5 670 1422 180" opacity="0.26"></path><path d="M 0 165 Q 355.5 130 711 400 Q 1066.5 670 1422 165" opacity="0.24"></path><path d="M 0 150 Q 355.5 130 711 400 Q 1066.5 670 1422 150" opacity="0.22"></path><path d="M 0 135 Q 355.5 130 711 400 Q 1066.5 670 1422 135" opacity="0.21"></path><path d="M 0 120 Q 355.5 130 711 400 Q 1066.5 670 1422 120" opacity="0.19"></path><path d="M 0 105 Q 355.5 130 711 400 Q 1066.5 670 1422 105" opacity="0.17"></path><path d="M 0 90 Q 355.5 130 711 400 Q 1066.5 670 1422 90" opacity="0.15"></path><path d="M 0 75 Q 355.5 130 711 400 Q 1066.5 670 1422 75" opacity="0.13"></path><path d="M 0 60 Q 355.5 130 711 400 Q 1066.5 670 1422 60" opacity="0.11"></path><path d="M 0 45 Q 355.5 130 711 400 Q 1066.5 670 1422 45" opacity="0.09"></path><path d="M 0 30 Q 355.5 130 711 400 Q 1066.5 670 1422 30" opacity="0.07"></path></g></svg>